<svg xmlns="http://www.w3.org/2000/svg" xmlns:svg="http://www.w3.org/2000/svg" id="icons" width="44" height="46" version="1.1" viewBox="0 0 44 46"><metadata id="metadata16"/><g style="fill:#9e9e9e;fill-opacity:1" id="Icon" transform="rotate(90,22,22)"><path style="fill:#9e9e9e;fill-opacity:1" id="path4" d="m 2,8 h 6 v 2 a 2,2 0 0 0 2,2 h 12 a 2,2 0 0 0 2,-2 V 8 H 44 A 2,2 0 0 0 44,4 H 24 V 2 A 2,2 0 0 0 22,0 H 10 A 2,2 0 0 0 8,2 V 4 H 2 A 2,2 0 0 0 2,8 Z M 12,4 h 8 v 4 h -8 z"/><path style="fill:#9e9e9e;fill-opacity:1" id="path6" d="M 44,20 H 38 V 18 A 2,2 0 0 0 36,16 H 24 a 2,2 0 0 0 -2,2 v 2 H 2 a 2,2 0 0 0 0,4 h 20 v 2 a 2,2 0 0 0 2,2 h 12 a 2,2 0 0 0 2,-2 v -2 h 6 a 2,2 0 0 0 0,-4 z m -10,4 h -8 v -4 h 8 z"/><path style="fill:#9e9e9e;fill-opacity:1" id="path8" d="M 44,36 H 24 V 34 A 2,2 0 0 0 22,32 H 10 a 2,2 0 0 0 -2,2 v 2 H 2 a 2,2 0 0 0 0,4 h 6 v 2 a 2,2 0 0 0 2,2 h 12 a 2,2 0 0 0 2,-2 v -2 h 20 a 2,2 0 0 0 0,-4 z m -24,4 h -8 v -4 h 8 z"/></g></svg>