<svg xmlns="http://www.w3.org/2000/svg" xmlns:svg="http://www.w3.org/2000/svg" id="svg2" width="18" height="18" version="1.1" viewBox="0 0 18 18" xml:space="preserve"><metadata id="metadata8"/><defs id="defs6"><clipPath id="clipPath16" clipPathUnits="userSpaceOnUse"><path id="path18" d="M 0,38 H 38 V 0 H 0 Z"/></clipPath></defs><g id="g10" transform="matrix(0.4375,0,0,-0.4375,0.6875,17.3125)" style="fill:#333;fill-opacity:1"><g id="g12" style="fill:#333;fill-opacity:1"><g id="g14" clip-path="url(#clipPath16)" style="fill:#333;fill-opacity:1"><g id="g20" transform="translate(32,22)" style="fill:#333;fill-opacity:1"><path id="path22" d="m 0,0 h -10 v 10 c 0,1.657 -1.343,3 -3,3 -1.657,0 -3,-1.343 -3,-3 V 0 h -10 c -1.657,0 -3,-1.343 -3,-3 0,-1.657 1.343,-3 3,-3 h 10 v -10 c 0,-1.657 1.343,-3 3,-3 1.657,0 3,1.343 3,3 V -6 H 0 c 1.657,0 3,1.343 3,3 0,1.657 -1.343,3 -3,3" style="fill:#333;fill-opacity:1;fill-rule:nonzero;stroke:none"/></g></g></g></g></svg>