<svg xmlns="http://www.w3.org/2000/svg" xmlns:svg="http://www.w3.org/2000/svg" id="svg8" width="451" height="451" x="0" y="0" fill="#03A73E" enable-background="new 0 0 64 64" version="1.1" viewBox="0 0 64 64" xml:space="preserve"><metadata id="metadata14"/><g id="g6" transform="matrix(-1,0,0,1,64.057481,0)"><path id="path2" d="m 62.3,29.9 c 0.3,-1.8 -0.6,-3.8 -2.1,-5 L 60,24.8 c -0.1,-0.1 -0.1,-0.1 -0.2,-0.1 l -0.2,-0.1 c 0,0 -0.1,0 -0.1,-0.1 l -0.3,-0.1 c -0.1,-0.1 -0.3,-0.1 -0.5,-0.2 -2.5,-0.8 -5.3,-0.5 -7.9,-0.2 -0.6,0.1 -6.2,0.1 -6.3,0.5 l 0.9,-2.9 C 45.9,20 46.3,18.5 46.8,16.9 47.5,14.6 47.7,12.8 47.5,11 47.2,8.8 45.9,6.7 44,5.5 c -1.1,-0.7 -2.3,-1 -3.5,-1 -0.1,0 -0.2,0 -0.3,0 -1.2,0.1 -1.9,0.7 -2,1.9 -0.1,1.5 -0.3,2.9 -0.5,4.2 -0.4,2.3 -1,4.2 -1.9,5.8 -0.5,0.9 -1.1,1.8 -1.9,2.5 -1,1 -2,2.2 -3.2,3.5 l -2.6,3 c -0.6,0.7 -1.2,1.4 -1.9,2 -0.1,0.1 -0.3,0.3 -0.5,0.5 -0.4,0.4 -1,0.7 -1.5,1 -0.3,0.1 -0.7,0.3 -1.3,0.4 -2.2,0.6 -3.5,1.2 -3.6,2.6 0,0.7 -0.1,1.4 -0.1,2 v 0.4 c 0,0.6 0,1.1 0,1.7 v 20.6 h 3.4 0.2 c 1.2,0.2 2.4,0.4 4,0.7 l 0.7,0.1 c 3.1,0.5 6,1 8.8,1.3 7,0.8 15.5,2.9 20.7,-3.5 2.1,-2.6 2.3,-6.3 2.8,-9.5 0.9,-5.3 1.8,-10.5 2.5,-15.8 z" style="fill:#03a73e"/><path id="path4" d="M 13.2,58.7 H 3.9 c -1.2,0 -2.2,-1 -2.2,-2.2 V 28.7 c 0,-1.2 1,-2.2 2.2,-2.2 h 9.3 c 1.2,0 2.2,1 2.2,2.2 v 27.8 c 0,1.2 -0.9,2.2 -2.2,2.2 z" style="fill:#03a73e"/></g></svg>