<svg xmlns="http://www.w3.org/2000/svg" xmlns:svg="http://www.w3.org/2000/svg" id="Capa_1" width="18" height="24.006" x="0" y="0" version="1.1" viewBox="0 0 18 24.006" xml:space="preserve"><metadata id="metadata41"/><g id="g4" transform="matrix(0,-0.0842536,0.0842536,0,-1.0031473,24.006294)" style="fill:#9e9e9e;fill-opacity:1"><path id="path2" d="M 282.082,76.511 267.808,62.238 c -1.902,-1.906 -4.093,-2.856 -6.57,-2.856 -2.471,0 -4.661,0.95 -6.563,2.856 L 142.466,174.441 30.262,62.241 c -1.903,-1.906 -4.093,-2.856 -6.567,-2.856 -2.475,0 -4.665,0.95 -6.567,2.856 L 2.856,76.515 C 0.95,78.417 0,80.607 0,83.082 c 0,2.473 0.953,4.663 2.856,6.565 l 133.043,133.046 c 1.902,1.903 4.093,2.854 6.567,2.854 2.474,0 4.661,-0.951 6.562,-2.854 L 282.082,89.647 c 1.902,-1.903 2.847,-4.093 2.847,-6.565 0,-2.475 -0.945,-4.665 -2.847,-6.571 z" style="fill:#9e9e9e;fill-opacity:1"/></g></svg>